v -0.33202698826789856 24.780412673950195 0.5212579965591431
v 2.487804889678955 24.62082290649414 0.5212579965591431
v 5.272140979766846 24.144081115722656 0.5212579965591431
v 7.986041069030762 23.356151580810547 0.5212579965591431
v 10.595311164855957 22.266977310180664 0.5212579965591431
v 13.067157745361328 20.89023780822754 0.5212579965591431
v 15.370535850524902 19.243228912353516 0.5212579965591431
v 17.476415634155273 17.34670639038086 0.5212569832801819
v 19.35834312438965 15.224494934082031 0.5212569832801819
v 20.992677688598633 12.903253555297852 0.5212569832801819
v 22.35881996154785 10.412233352661133 0.5212569832801819
v 23.439613342285156 7.782729148864746 0.5212569832801819
v 24.221477508544922 5.0477800369262695 0.5212569832801819
v 24.69455337524414 2.2418510913848877 0.5212569832801819
v 24.852914810180664 -0.5998499989509583 0.5212569832801819
v 24.69455337524414 -3.4415509700775146 0.5212560296058655
v 24.221477508544922 -6.247480869293213 0.5212560296058655
v 23.439613342285156 -8.982428550720215 0.5212560296058655
v 22.35881996154785 -11.61193561553955 0.5212560296058655
v 20.992677688598633 -14.10295295715332 0.5212560296058655
v 19.35834312438965 -16.424196243286133 0.5212560296058655
v 17.476417541503906 -18.546403884887695 0.5212560296058655
v 15.370536804199219 -20.44292640686035 0.5212560296058655
v 13.067158699035645 -22.089937210083008 0.5212560296058655
v 10.595309257507324 -23.4666748046875 0.5212560296058655
v 7.986041069030762 -24.555849075317383 0.5212560296058655
v 5.272140979766846 -25.343778610229492 0.5212550163269043
v 2.487804889678955 -25.82052230834961 0.5212550163269043
v -0.33202698826789856 -25.98011016845703 0.5212550163269043
v -3.1518590450286865 -25.82052230834961 0.5212560296058655
v -5.936194896697998 -25.343778610229492 0.5212560296058655
v -8.650094985961914 -24.555849075317383 0.5212560296058655
v -11.259366035461426 -23.4666748046875 0.5212560296058655
v -13.731213569641113 -22.089937210083008 0.5212560296058655
v -16.034591674804688 -20.44292640686035 0.5212560296058655
v -18.14046859741211 -18.546405792236328 0.5212560296058655
v -20.022397994995117 -16.4241943359375 0.5212560296058655
v -21.6567325592041 -14.102953910827637 0.5212560296058655
v -23.02287483215332 -11.611933708190918 0.5212560296058655
v -24.103670120239258 -8.982428550720215 0.5212560296058655
v -24.885534286499023 -6.247480869293213 0.5212560296058655
v -25.35860824584961 -3.4415509700775146 0.5212569832801819
v -25.516969680786133 -0.5998499989509583 0.5212569832801819
v -25.35860824584961 2.2418510913848877 0.5212569832801819
v -24.885534286499023 5.0477800369262695 0.5212569832801819
v -24.103670120239258 7.78272819519043 0.5212569832801819
v -23.022876739501953 10.41223430633545 0.5212569832801819
v -21.6567325592041 12.903252601623535 0.5212569832801819
v -20.02239990234375 15.224494934082031 0.5212569832801819
v -18.140472412109375 17.346704483032227 0.5212569832801819
v -16.034591674804688 19.243228912353516 0.5212569832801819
v -13.73121452331543 20.89023780822754 0.5212579965591431
v -11.25936508178711 22.266977310180664 0.5212579965591431
v -8.650094985961914 23.356151580810547 0.5212579965591431
v -5.936193943023682 24.144081115722656 0.5212579965591431
v -3.1518590450286865 24.62082290649414 0.5212579965591431
v 2.487804889678955 24.62082290649414 -2.7684760093688965
v -0.33202698826789856 24.780412673950195 -2.7684760093688965
v 5.272140979766846 24.144081115722656 -2.7684760093688965
v 7.986041069030762 23.356151580810547 -2.7684760093688965
v 10.595311164855957 22.266977310180664 -2.7684760093688965
v 13.067157745361328 20.89023780822754 -2.7684760093688965
v 15.370535850524902 19.243228912353516 -2.7684760093688965
v 17.476415634155273 17.34670639038086 -2.7684760093688965
v 19.35834312438965 15.224494934082031 -2.7684760093688965
v 20.992677688598633 12.903253555297852 -2.7684760093688965
v 22.35881996154785 10.412233352661133 -2.7684760093688965
v 23.439613342285156 7.782729148864746 -2.768476963043213
v 24.221477508544922 5.0477800369262695 -2.7684760093688965
v 24.69455337524414 2.2418510913848877 -2.768476963043213
v 24.852914810180664 -0.5998499989509583 -2.768476963043213
v 24.69455337524414 -3.4415509700775146 -2.768476963043213
v 24.221477508544922 -6.247480869293213 -2.768476963043213
v 23.439613342285156 -8.982428550720215 -2.768476963043213
v 22.35881996154785 -11.61193561553955 -2.768476963043213
v 20.992677688598633 -14.10295295715332 -2.7684779167175293
v 19.35834312438965 -16.424196243286133 -2.7684779167175293
v 17.476417541503906 -18.546403884887695 -2.7684779167175293
v 15.370536804199219 -20.44292640686035 -2.7684779167175293
v 13.067158699035645 -22.089937210083008 -2.7684779167175293
v 10.595309257507324 -23.4666748046875 -2.7684779167175293
v 7.986041069030762 -24.555849075317383 -2.7684779167175293
v 5.272140979766846 -25.343778610229492 -2.7684779167175293
v 2.487804889678955 -25.82052230834961 -2.7684779167175293
v -0.33202698826789856 -25.98011016845703 -2.7684779167175293
v -3.1518590450286865 -25.82052230834961 -2.7684779167175293
v -5.936194896697998 -25.343778610229492 -2.7684779167175293
v -8.650094985961914 -24.555849075317383 -2.7684779167175293
v -11.259366035461426 -23.4666748046875 -2.7684779167175293
v -13.731213569641113 -22.089937210083008 -2.7684779167175293
v -16.034591674804688 -20.44292640686035 -2.7684779167175293
v -18.14046859741211 -18.546405792236328 -2.7684779167175293
v -20.022397994995117 -16.4241943359375 -2.768476963043213
v -21.6567325592041 -14.102953910827637 -2.7684779167175293
v -23.02287483215332 -11.611933708190918 -2.7684779167175293
v -24.103670120239258 -8.982428550720215 -2.768476963043213
v -24.885534286499023 -6.247480869293213 -2.768476963043213
v -25.35860824584961 -3.4415509700775146 -2.768476963043213
v -25.516969680786133 -0.5998499989509583 -2.768476963043213
v -25.35860824584961 2.2418510913848877 -2.768476963043213
v -24.885534286499023 5.0477800369262695 -2.768476963043213
v -24.103670120239258 7.78272819519043 -2.7684760093688965
v -23.022876739501953 10.41223430633545 -2.768476963043213
v -21.6567325592041 12.903252601623535 -2.7684760093688965
v -20.02239990234375 15.224494934082031 -2.7684760093688965
v -18.140472412109375 17.346704483032227 -2.7684760093688965
v -16.034591674804688 19.243228912353516 -2.7684760093688965
v -13.73121452331543 20.89023780822754 -2.7684760093688965
v -11.25936508178711 22.266977310180664 -2.7684760093688965
v -8.650094985961914 23.356151580810547 -2.7684760093688965
v -5.936194896697998 24.144081115722656 -2.7684760093688965
v -3.1518590450286865 24.62082290649414 -2.7684760093688965
vt 0.6867309808731079 0.8913080096244812
vt 0.6416839957237244 0.9101129770278931
vt 0.3094229996204376 0.8913080096244812
vt 0.35447099804878235 0.9101129770278931
vt 0.401324987411499 0.9237160086631775
vt 0.5948299765586853 0.9237160086631775
vt 0.5467600226402283 0.9319459795951843
vt 0.49807700514793396 0.9347010254859924
vt 0.44939398765563965 0.9319459795951843
vt 0.26674801111221313 0.8675400018692017
vt 0.2269819974899292 0.8391050100326538
vt 0.7294059991836548 0.8675400018692017
vt 0.19062499701976776 0.8063629865646362
vt 0.805528998374939 0.8063629865646362
vt 0.15813399851322174 0.7697240114212036
vt 0.8380200266838074 0.7697240114212036
vt 0.8662359714508057 0.729649007320404
vt 0.12991900742053986 0.729649007320404
vt 0.10633300244808197 0.6866430044174194
vt 0.8898209929466248 0.6866430044174194
vt 0.08767399936914444 0.6412460207939148
vt 0.07417500019073486 0.5940290093421936
vt 0.9084810018539429 0.6412460207939148
vt 0.06600800156593323 0.5455859899520874
vt 0.9219790101051331 0.5940290093421936
vt 0.06327400356531143 0.49652600288391113
vt 0.9301459789276123 0.5455859899520874
vt 0.06600800156593323 0.4474659860134125
vt 0.9301459789276123 0.4474659860134125
vt 0.07417500019073486 0.39902299642562866
vt 0.9219790101051331 0.39902299642562866
vt 0.9084810018539429 0.35180601477622986
vt 0.08767399936914444 0.35180601477622986
vt 0.10633300244808197 0.30640900135040283
vt 0.8898209929466248 0.30640900135040283
vt 0.12991900742053986 0.2634029984474182
vt 0.15813399851322174 0.22332799434661865
vt 0.8662359714508057 0.2634029984474182
vt 0.19062499701976776 0.18668900430202484
vt 0.8380200266838074 0.22332799434661865
vt 0.2269819974899292 0.15394699573516846
vt 0.805528998374939 0.18668900430202484
vt 0.26674801111221313 0.1255120038986206
vt 0.7294059991836548 0.1255120038986206
vt 0.3094229996204376 0.10174400359392166
vt 0.6867309808731079 0.10174400359392166
vt 0.35447099804878235 0.0829399973154068
vt 0.6416839957237244 0.0829399973154068
vt 0.401324987411499 0.06933700293302536
vt 0.5948299765586853 0.06933700293302536
vt 0.44939398765563965 0.06110600009560585
vt 0.49807700514793396 0.058350998908281326
vt 0.5467600226402283 0.06110600009560585
vt 0.7691730260848999 0.15394699573516846
vt 0.9328809976577759 0.49652600288391113
vt 0.7691730260848999 0.8391050100326538
vt 0.40132400393486023 0.06933700293302536
vn 0 0 1
vn 0 0 -1
f 5/1/1 4/3/1 53/5/1
f 110/4/2 111/6/2 60/4/2
f 3/6/1 2/8/1 55/7/1
f 2/7/1 1/9/1 56/11/1
f 55/5/1 2/8/1 56/11/1
f 55/5/1 54/5/1 3/8/1
f 54/4/1 53/4/1 4/4/1
f 3/6/1 54/5/1 4/4/1
f 53/3/1 52/11/1 5/3/1
f 52/10/1 51/12/1 6/14/1
f 5/1/1 52/11/1 6/14/1
f 51/11/1 50/14/1 8/16/1
f 50/13/1 49/16/1 9/18/1
f 10/17/1 49/16/1 48/20/1
f 48/18/1 47/20/1 11/22/1
f 47/19/1 46/22/1 11/22/1
f 46/21/1 45/23/1 12/25/1
f 11/20/1 46/22/1 12/25/1
f 45/22/1 44/25/1 13/27/1
f 44/24/1 43/27/1 14/29/1
f 43/26/1 42/29/1 16/31/1
f 42/28/1 41/31/1 17/33/1
f 18/32/1 41/31/1 40/35/1
f 40/33/1 39/35/1 19/37/1
f 39/34/1 38/37/1 19/37/1
f 38/36/1 37/38/1 20/40/1
f 19/35/1 38/37/1 20/40/1
f 37/37/1 36/40/1 21/42/1
f 36/39/1 35/42/1 22/44/1
f 35/41/1 34/44/1 24/46/1
f 34/43/1 33/46/1 25/48/1
f 33/45/1 32/48/1 26/50/1
f 32/47/1 31/50/1 27/52/1
f 31/49/1 30/52/1 27/52/1
f 30/51/1 29/53/1 28/55/1
f 27/50/1 30/52/1 28/55/1
f 27/50/1 26/49/1 32/49/1
f 26/48/1 25/47/1 33/47/1
f 25/46/1 24/45/1 34/45/1
f 24/44/1 23/55/1 35/43/1
f 23/54/1 22/43/1 35/43/1
f 22/42/1 21/41/1 36/41/1
f 21/40/1 20/39/1 37/39/1
f 19/35/1 18/33/1 40/35/1
f 18/32/1 17/32/1 41/32/1
f 42/28/1 17/32/1 16/31/1
f 16/29/1 15/56/1 43/28/1
f 15/55/1 14/28/1 43/28/1
f 14/27/1 13/26/1 44/26/1
f 13/25/1 12/24/1 45/24/1
f 11/20/1 10/18/1 48/20/1
f 10/17/1 9/17/1 49/17/1
f 50/13/1 9/17/1 8/16/1
f 8/14/1 7/57/1 51/13/1
f 7/56/1 6/13/1 51/13/1
f 112/9/2 58/9/2 57/9/2
f 57/7/2 59/7/2 112/11/2
f 59/6/2 60/3/2 111/7/2
f 112/9/2 59/7/2 111/7/2
f 60/2/2 61/2/2 109/5/2
f 61/1/2 62/13/2 108/12/2
f 62/12/2 63/57/2 108/12/2
f 63/56/2 64/15/2 107/13/2
f 108/10/2 63/57/2 107/13/2
f 64/14/2 65/17/2 105/17/2
f 65/16/2 66/18/2 104/20/2
f 66/17/2 67/21/2 104/20/2
f 67/20/2 68/24/2 103/21/2
f 104/18/2 67/21/2 103/21/2
f 68/23/2 69/26/2 102/23/2
f 69/25/2 70/28/2 101/24/2
f 70/27/2 71/56/2 100/26/2
f 71/55/2 72/30/2 99/28/2
f 72/29/2 73/32/2 97/32/2
f 73/31/2 74/33/2 96/35/2
f 74/32/2 75/36/2 96/35/2
f 75/35/2 76/39/2 95/36/2
f 96/33/2 75/36/2 95/36/2
f 76/38/2 77/41/2 93/39/2
f 77/40/2 78/43/2 92/41/2
f 78/42/2 79/55/2 92/41/2
f 79/54/2 80/45/2 91/43/2
f 92/39/2 79/55/2 91/43/2
f 80/44/2 81/47/2 89/47/2
f 81/46/2 82/49/2 88/49/2
f 82/48/2 83/51/2 88/49/2
f 83/50/2 84/54/2 87/59/2
f 88/47/2 83/51/2 87/59/2
f 84/53/2 85/53/2 86/53/2
f 86/51/2 87/58/2 84/55/2
f 88/47/2 89/46/2 81/48/2
f 89/45/2 90/44/2 80/46/2
f 90/43/2 91/42/2 80/46/2
f 92/39/2 93/38/2 77/42/2
f 93/37/2 94/37/2 76/40/2
f 94/36/2 95/35/2 76/40/2
f 96/33/2 97/31/2 73/33/2
f 97/30/2 98/29/2 72/31/2
f 98/28/2 99/27/2 72/31/2
f 99/26/2 100/25/2 71/57/2
f 100/24/2 101/23/2 70/29/2
f 101/22/2 102/22/2 69/27/2
f 102/21/2 103/20/2 68/25/2
f 104/18/2 105/16/2 65/18/2
f 105/15/2 106/14/2 64/16/2
f 106/13/2 107/12/2 64/16/2
f 108/10/2 109/4/2 61/3/2
f 109/3/2 110/5/2 60/4/2
